<svg width="400" height="400" xmlns="http://www.w3.org/2000/svg" version="1.1">
	<circle cx="200" cy="200" r="200" stroke="black" fill="orange" />
	<line x1="360" y1="200" x2="400" y2="200" stroke="black" />
	<line x1="389" y1="220" x2="399" y2="221" stroke="black" />
	<line x1="386" y1="240" x2="396" y2="242" stroke="black" />
	<line x1="381" y1="259" x2="390" y2="262" stroke="black" />
	<line x1="374" y1="277" x2="383" y2="281" stroke="black" />
	<line x1="347" y1="285" x2="373" y2="300" stroke="black" />
	<line x1="354" y1="312" x2="362" y2="318" stroke="black" />
	<line x1="341" y1="327" x2="349" y2="334" stroke="black" />
	<line x1="327" y1="341" x2="334" y2="349" stroke="black" />
	<line x1="312" y1="354" x2="318" y2="362" stroke="black" />
	<line x1="285" y1="347" x2="300" y2="373" stroke="black" />
	<line x1="277" y1="374" x2="281" y2="383" stroke="black" />
	<line x1="259" y1="381" x2="262" y2="390" stroke="black" />
	<line x1="240" y1="386" x2="242" y2="396" stroke="black" />
	<line x1="220" y1="389" x2="221" y2="399" stroke="black" />
	<line x1="200" y1="360" x2="200" y2="400" stroke="black" />
	<line x1="180" y1="389" x2="179" y2="399" stroke="black" />
	<line x1="160" y1="386" x2="158" y2="396" stroke="black" />
	<line x1="141" y1="381" x2="138" y2="390" stroke="black" />
	<line x1="123" y1="374" x2="119" y2="383" stroke="black" />
	<line x1="115" y1="347" x2="100" y2="373" stroke="black" />
	<line x1="88" y1="354" x2="82" y2="362" stroke="black" />
	<line x1="73" y1="341" x2="66" y2="349" stroke="black" />
	<line x1="59" y1="327" x2="51" y2="334" stroke="black" />
	<line x1="46" y1="312" x2="38" y2="318" stroke="black" />
	<line x1="53" y1="285" x2="27" y2="300" stroke="black" />
	<line x1="26" y1="277" x2="17" y2="281" stroke="black" />
	<line x1="19" y1="259" x2="10" y2="262" stroke="black" />
	<line x1="14" y1="240" x2="4" y2="242" stroke="black" />
	<line x1="11" y1="220" x2="1" y2="221" stroke="black" />
	<line x1="40" y1="200" x2="0" y2="200" stroke="black" />
	<line x1="11" y1="180" x2="1" y2="179" stroke="black" />
	<line x1="14" y1="160" x2="4" y2="158" stroke="black" />
	<line x1="19" y1="141" x2="10" y2="138" stroke="black" />
	<line x1="26" y1="123" x2="17" y2="119" stroke="black" />
	<line x1="53" y1="115" x2="27" y2="100" stroke="black" />
	<line x1="46" y1="88" x2="38" y2="82" stroke="black" />
	<line x1="59" y1="73" x2="51" y2="66" stroke="black" />
	<line x1="73" y1="59" x2="66" y2="51" stroke="black" />
	<line x1="88" y1="46" x2="82" y2="38" stroke="black" />
	<line x1="115" y1="53" x2="100" y2="27" stroke="black" />
	<line x1="123" y1="26" x2="119" y2="17" stroke="black" />
	<line x1="141" y1="19" x2="138" y2="10" stroke="black" />
	<line x1="160" y1="14" x2="158" y2="4" stroke="black" />
	<line x1="180" y1="11" x2="179" y2="1" stroke="black" />
	<line x1="200" y1="40" x2="200" y2="0" stroke="black" />
	<line x1="220" y1="11" x2="221" y2="1" stroke="black" />
	<line x1="240" y1="14" x2="242" y2="4" stroke="black" />
	<line x1="259" y1="19" x2="262" y2="10" stroke="black" />
	<line x1="277" y1="26" x2="281" y2="17" stroke="black" />
	<line x1="285" y1="53" x2="300" y2="27" stroke="black" />
	<line x1="312" y1="46" x2="318" y2="38" stroke="black" />
	<line x1="327" y1="59" x2="334" y2="51" stroke="black" />
	<line x1="341" y1="73" x2="349" y2="66" stroke="black" />
	<line x1="354" y1="88" x2="362" y2="82" stroke="black" />
	<line x1="347" y1="115" x2="373" y2="100" stroke="black" />
	<line x1="374" y1="123" x2="383" y2="119" stroke="black" />
	<line x1="381" y1="141" x2="390" y2="138" stroke="black" />
	<line x1="386" y1="160" x2="396" y2="158" stroke="black" />
	<line x1="389" y1="180" x2="399" y2="179" stroke="black" />
	<line x1="276" y1="264" x2="200" y2="200" stroke="black" stroke-width="5" />
	<line x1="320" y1="273" x2="200" y2="200" stroke="black" stroke-width="3" />
	<line x1="371" y1="144" x2="200" y2="200" stroke="red" />
</svg>